<svg version="1.2" xmlns="http://www.w3.org/2000/svg" viewBox="0 0 105 31" width="105" height="31"><style>.a{fill:#8b0000}</style><path class="a" d="m7.9 24h8.5v5h-15v-26.7h6.5zm24.2 5.3q-3.8 0-6.9-1.7-3.2-1.8-5-4.9-1.8-3.2-1.8-7.1 0-3.9 1.8-7 1.8-3.1 5-4.9 3.1-1.7 6.9-1.7 3.7 0 6.9 1.7 3.1 1.8 4.9 4.9 1.8 3.1 1.8 7 0 3.9-1.8 7.1-1.8 3.1-4.9 4.9-3.2 1.7-6.9 1.7zm0-5.9q3.2 0 5.1-2.2 1.9-2.1 1.9-5.6 0-3.5-1.9-5.6-1.9-2.1-5.1-2.1-3.2 0-5.2 2.1-1.9 2.1-1.9 5.6 0 3.6 1.9 5.7 2 2.1 5.2 2.1zm34.9-12.6q-0.7-1.3-2-2-1.4-0.7-3.2-0.7-3.2 0-5.1 2.1-1.9 2-1.9 5.5 0 3.6 2 5.7 2 2.1 5.5 2.1 2.4 0 4.1-1.2 1.6-1.2 2.4-3.5h-8.3v-4.8h14.2v6q-0.7 2.5-2.5 4.6-1.7 2-4.4 3.3-2.6 1.3-6 1.3-3.9 0-7-1.7-3.1-1.7-4.9-4.8-1.7-3.1-1.7-7 0-4 1.7-7.1 1.8-3.1 4.9-4.8 3.1-1.7 7-1.7 4.8 0 8.1 2.3 3.3 2.3 4.3 6.4zm23.9 18.5q-3.8 0-6.9-1.7-3.2-1.8-5-4.9-1.8-3.2-1.8-7.1 0-3.9 1.8-7 1.8-3.1 5-4.9 3.1-1.7 6.9-1.7 3.7 0 6.9 1.7 3.1 1.8 4.9 4.9 1.8 3.1 1.8 7 0 3.9-1.8 7.1-1.8 3.1-4.9 4.9-3.2 1.7-6.9 1.7zm0-5.9q3.2 0 5.1-2.2 1.9-2.1 1.9-5.6 0-3.5-1.9-5.6-1.9-2.1-5.1-2.1-3.2 0-5.2 2.1-1.9 2.1-1.9 5.6 0 3.6 1.9 5.7 2 2.1 5.2 2.1z"/></svg>