<svg width="137" height="94" viewBox="0 0 137 94" fill="none" xmlns="http://www.w3.org/2000/svg">
<path d="M23.854 54.984H32.366V60H17.356V33.324H23.854V54.984ZM48.0814 60.266C45.5734 60.266 43.268 59.6833 41.1654 58.518C39.088 57.3527 37.4287 55.7313 36.1874 53.654C34.9714 51.5513 34.3634 49.1953 34.3634 46.586C34.3634 43.9767 34.9714 41.6333 36.1874 39.556C37.4287 37.4787 39.088 35.8573 41.1654 34.692C43.268 33.5267 45.5734 32.944 48.0814 32.944C50.5894 32.944 52.882 33.5267 54.9594 34.692C57.062 35.8573 58.7087 37.4787 59.8994 39.556C61.1154 41.6333 61.7234 43.9767 61.7234 46.586C61.7234 49.1953 61.1154 51.5513 59.8994 53.654C58.6834 55.7313 57.0367 57.3527 54.9594 58.518C52.882 59.6833 50.5894 60.266 48.0814 60.266ZM48.0814 54.338C50.2094 54.338 51.9067 53.6287 53.1734 52.21C54.4654 50.7913 55.1114 48.9167 55.1114 46.586C55.1114 44.23 54.4654 42.3553 53.1734 40.962C51.9067 39.5433 50.2094 38.834 48.0814 38.834C45.928 38.834 44.2054 39.5307 42.9134 40.924C41.6467 42.3173 41.0134 44.2047 41.0134 46.586C41.0134 48.942 41.6467 50.8293 42.9134 52.248C44.2054 53.6413 45.928 54.338 48.0814 54.338ZM83.0464 41.76C82.5651 40.8733 81.8684 40.202 80.9564 39.746C80.0698 39.2647 79.0184 39.024 77.8024 39.024C75.6998 39.024 74.0151 39.7207 72.7484 41.114C71.4818 42.482 70.8484 44.3187 70.8484 46.624C70.8484 49.0813 71.5071 51.0067 72.8244 52.4C74.1671 53.768 76.0038 54.452 78.3344 54.452C79.9304 54.452 81.2731 54.0467 82.3624 53.236C83.4771 52.4253 84.2878 51.26 84.7944 49.74H76.5484V44.952H90.6844V50.994C90.2031 52.6153 89.3798 54.1227 88.2144 55.516C87.0744 56.9093 85.6178 58.0367 83.8444 58.898C82.0711 59.7593 80.0698 60.19 77.8404 60.19C75.2058 60.19 72.8498 59.62 70.7724 58.48C68.7204 57.3147 67.1118 55.706 65.9464 53.654C64.8064 51.602 64.2364 49.2587 64.2364 46.624C64.2364 43.9893 64.8064 41.646 65.9464 39.594C67.1118 37.5167 68.7204 35.908 70.7724 34.768C72.8244 33.6027 75.1678 33.02 77.8024 33.02C80.9944 33.02 83.6798 33.7927 85.8584 35.338C88.0624 36.8833 89.5191 39.024 90.2284 41.76H83.0464ZM106.9 60.266C104.392 60.266 102.086 59.6833 99.9837 58.518C97.9064 57.3527 96.2471 55.7313 95.0057 53.654C93.7897 51.5513 93.1817 49.1953 93.1817 46.586C93.1817 43.9767 93.7897 41.6333 95.0057 39.556C96.2471 37.4787 97.9064 35.8573 99.9837 34.692C102.086 33.5267 104.392 32.944 106.9 32.944C109.408 32.944 111.7 33.5267 113.778 34.692C115.88 35.8573 117.527 37.4787 118.718 39.556C119.934 41.6333 120.542 43.9767 120.542 46.586C120.542 49.1953 119.934 51.5513 118.718 53.654C117.502 55.7313 115.855 57.3527 113.778 58.518C111.7 59.6833 109.408 60.266 106.9 60.266ZM106.9 54.338C109.028 54.338 110.725 53.6287 111.992 52.21C113.284 50.7913 113.93 48.9167 113.93 46.586C113.93 44.23 113.284 42.3553 111.992 40.962C110.725 39.5433 109.028 38.834 106.9 38.834C104.746 38.834 103.024 39.5307 101.732 40.924C100.465 42.3173 99.8317 44.2047 99.8317 46.586C99.8317 48.942 100.465 50.8293 101.732 52.248C103.024 53.6413 104.746 54.338 106.9 54.338Z" fill="#8B0000"/>
</svg>
